<svg height="512pt" viewBox="0 0 512.00331 512" width="512pt" xmlns="http://www.w3.org/2000/svg"><path d="m84.851562 321.082031 53.035157-53.03125 106.0625 106.0625-53.03125 53.035157zm0 0" fill="#537983"/><path d="m137.886719 374.113281 53.03125-53.03125 53.03125 53.03125-53.03125 53.035157zm0 0" fill="#3e5959"/><path d="m147.347656 135.1875-109.03125 54.503906 68.757813 68.757813 65.152343-32.488281 22.726563-74.910157zm0 0" fill="#ff9100"/><path d="m376.816406 364.660156-15.863281-47.605468-74.910156 22.722656-32.484375 65.152344 68.753906 68.757812zm0 0" fill="#ff641a"/><path d="m439.964844 230.714844-47.515625-5.089844-106.066407-106.066406-5.09375-47.519532c60.457032-40.515624 140.769532-72.039062 215.652344-71.824218l15.0625-.214844-.214844 15.0625c.214844 74.882812-31.304687 155.195312-71.824218 215.652344zm0 0" fill="#ff9100"/><path d="m439.964844 230.714844-47.515625-5.089844-53.035157-53.035156 172.589844-172.589844-.214844 15.0625c.214844 74.882812-31.304687 155.195312-71.824218 215.652344zm0 0" fill="#ff641a"/><path d="m365.929688 312.808594-5.089844 4.242187-107.335938 87.824219-41.367187-41.367188 3.179687-39.242187-28.847656-28.851563-37.972656 4.457032-41.367188-41.367188 87.824219-107.335937 4.242187-5.09375c23.761719-29.273438 51.550782-53.667969 82.097657-74.035157l158.671875 158.675782c-20.367188 30.546875-44.757813 58.335937-74.035156 82.09375zm0 0" fill="#deecf1"/><path d="m365.929688 312.808594-5.089844 4.242187-107.335938 87.824219-41.367187-41.367188 3.179687-39.242187-13.785156-13.789063 159.097656-159.097656 79.335938 79.335938c-20.367188 30.546875-44.757813 58.335937-74.035156 82.09375zm0 0" fill="#c5d3dd"/><path d="m0 490.785156 21.214844-21.210937 21.210937 21.210937-21.210937 21.214844zm0 0" fill="#ffda2d"/><path d="m21.21875 384.71875 21.214844 21.214844-21.214844 21.210937-21.2109375-21.210937zm0 0" fill="#ffda2d"/><path d="m106.070312 469.570312 21.214844 21.214844-21.214844 21.210938-21.210937-21.210938zm0 0" fill="#fdbf00"/><path d="m148.496094 427.144531 21.214844 21.210938-21.214844 21.214843-21.210938-21.214843zm0 0" fill="#fdbf00"/><path d="m63.644531 342.292969 21.214844 21.214843-21.214844 21.210938-21.210937-21.210938zm0 0" fill="#ffda2d"/><path d="m42.425781 448.359375 63.640625-63.640625 21.210938 21.214844-63.636719 63.636718zm0 0" fill="#ffda2d"/><path d="m148.492188 299.871094 106.066406-106.066406 63.636718 63.640624-106.0625 106.0625zm0 0" fill="#ff9100"/><path d="m212.136719 363.511719-31.820313-31.820313 106.066406-106.0625 31.816407 31.816406zm0 0" fill="#ff641a"/><path d="m63.640625 469.578125-10.605469-10.605469 63.636719-63.640625 10.609375 10.605469zm0 0" fill="#fdbf00"/><path d="m21.214844 512.003906-10.609375-10.605468 21.214843-21.214844 10.605469 10.609375zm0 0" fill="#fdbf00"/><path d="m392.449219 119.558594c-17.609375-17.609375-46.035157-17.609375-63.640625 0-17.609375 17.605468-17.609375 46.03125 0 63.640625 17.605468 17.605469 46.03125 17.605469 63.640625 0 17.605469-17.609375 17.605469-46.035157 0-63.640625zm0 0" fill="#537983"/><path d="m392.449219 183.195312c-17.609375 17.609376-46.035157 17.609376-63.640625 0l63.640625-63.636718c17.605469 17.605468 17.605469 46.03125 0 63.636718zm0 0" fill="#3e5959"/></svg>