<svg height="512pt" viewBox="0 0 512 512" width="512pt" xmlns="http://www.w3.org/2000/svg"><path d="m211 436h90v76h-90zm0 0" fill="#c5d3dd"/><path d="m256 436h45v76h-45zm0 0" fill="#9facba"/><path d="m181 376h150v75h-150zm0 0" fill="#deecf1"/><path d="m256 376h75v75h-75zm0 0" fill="#deecf1"/><path d="m256 376h75v75h-75zm0 0" fill="#c5d3dd"/><path d="m421 166c0 58.5-31.5 113.097656-82.199219 142.5-4.800781 3-7.800781 7.5-7.800781 12v10.5l-30 30h-90l-30-30v-9.300781c0-5.398438-2.402344-10.199219-6.300781-12.300781-61.5-34.796876-93.300781-102.597657-81.296875-172.5 11.398437-65.699219 62.398437-119.796876 127.199218-133.296876 11.699219-2.402343 23.699219-3.601562 35.398438-3.601562 37.800781 0 74.398438 12.597656 104.097656 36.898438 38.703125 31.5 60.902344 79.300781 60.902344 129.101562zm0 0" fill="#ffda2d"/><path d="m421 166c0 58.5-31.5 113.097656-82.199219 142.5-4.800781 3-7.800781 7.5-7.800781 12v10.5l-30 30h-45v-361c37.800781 0 74.398438 12.597656 104.097656 36.898438 38.703125 31.5 60.902344 79.300781 60.902344 129.101562zm0 0" fill="#fdbf00"/><path d="m241 196h30v150h-30zm0 0" fill="#fdbf00"/><path d="m256 196h15v150h-15zm0 0" fill="#ff9100"/><path d="m181 331h150v45h-150zm0 0" fill="#fdbf00"/><path d="m256 331h75v45h-75zm0 0" fill="#ff9100"/><g fill="#ffda2d"><path d="m0 151h61v30h-61zm0 0"/><path d="m52.679688 118.480469-46-30 16.640624-24.960938 46 30zm0 0"/><path d="m23.320312 268.480469-16.640624-24.960938 46-30 16.640624 24.960938zm0 0"/></g><path d="m451 151h61v30h-61zm0 0" fill="#fdbf00"/><path d="m459.320312 118.480469-16.640624-24.960938 46-30 16.640624 24.960938zm0 0" fill="#fdbf00"/><path d="m488.679688 268.480469-46-30 16.640624-24.960938 46 30zm0 0" fill="#fdbf00"/><path d="m151 361h210v30h-210zm0 0" fill="#ffda2d"/><path d="m256 361h105v30h-105zm0 0" fill="#fdbf00"/><path d="m196 181h120v30h-120zm0 0" fill="#fdbf00"/><path d="m256 181h60v30h-60zm0 0" fill="#ff9100"/><path d="m196 211c-24.8125 0-45-20.1875-45-45s20.1875-45 45-45 45 20.1875 45 45-20.1875 45-45 45zm0 0" fill="#fdbf00"/><path d="m316 211c-24.8125 0-45-20.1875-45-45s20.1875-45 45-45 45 20.1875 45 45-20.1875 45-45 45zm0 0" fill="#ff9100"/></svg>