<svg height="512pt" viewBox="0 0 512 512" width="512pt" xmlns="http://www.w3.org/2000/svg"><path d="m152 347h150v90h-150zm0 0" fill="#c5d3dd"/><path d="m227 347h75v90h-75zm0 0" fill="#9facba"/><path d="m452 0v302l-30 30h-392l-30-30v-302zm0 0" fill="#3e5959"/><path d="m452 0v302l-30 30h-195v-332zm0 0" fill="#293939"/><path d="m30 30h392v242h-392zm0 0" fill="#25d9f8"/><path d="m227 30h195v242h-195zm0 0" fill="#00c0f1"/><path d="m0 302h452v60h-452zm0 0" fill="#deecf1"/><path d="m227 302h225v60h-225zm0 0" fill="#c5d3dd"/><path d="m92 422h150v30h-150zm0 0" fill="#deecf1"/><path d="m227 422h15v30h-15zm0 0" fill="#c5d3dd"/><path d="m482 152v270l-30 30h-210l-30-30v-270l30-30h210zm0 0" fill="#537983"/><path d="m482 152v270l-30 30h-105v-330h105zm0 0" fill="#3e5959"/><path d="m212 92h270v60h-270zm0 0" fill="#c5d3dd"/><path d="m212 422h270v60h-270zm0 0" fill="#c5d3dd"/><path d="m242 182h210v210h-210zm0 0" fill="#25d9f8"/><path d="m347 182h105v210h-105zm0 0" fill="#00c0f1"/><path d="m347 92h135v60h-135zm0 0" fill="#9facba"/><path d="m347 422h135v60h-135zm0 0" fill="#c5d3dd"/><path d="m512 272v180l-30 30h-150l-30-30v-180l30-30h150zm0 0" fill="#537983"/><path d="m512 272v180l-30 30h-75v-240h75zm0 0" fill="#3e5959"/><path d="m302 212h210v60h-210zm0 0" fill="#deecf1"/><path d="m302 452h210v60h-210zm0 0" fill="#deecf1"/><path d="m332 302h150v120h-150zm0 0" fill="#25d9f8"/><path d="m407 302h75v120h-75zm0 0" fill="#00c0f1"/><g fill="#c5d3dd"><path d="m407 212h105v60h-105zm0 0"/><path d="m407 452h105v60h-105zm0 0"/></g></svg>