<svg height="512pt" viewBox="0 0 512 512" width="512pt" xmlns="http://www.w3.org/2000/svg"><path d="m512 0v421h-512v-271l256-26.101562 37.5-3.898438 142.5-120zm0 0" fill="#deecf1"/><path d="m512 0v421h-256v-297.101562l37.5-3.898438 142.5-120zm0 0" fill="#c5d3dd"/><path d="m436 0-112.5 150h-323.5v-150zm0 0" fill="#537983"/><path d="m323.5 150h-67.5v-150h180zm0 0" fill="#3e5959"/><g fill="#25d9f8"><path d="m121 60h30v30h-30zm0 0"/><path d="m181 60h30v30h-30zm0 0"/><path d="m61 60h30v30h-30zm0 0"/></g><path d="m376 240c-24.902344 0-45-20.097656-45-45v-15h-150v15c0 24.902344-20.097656 45-45 45h-15v60.902344c0 88.496094 49.199219 168.199218 128.402344 207.796875l6.597656 3.300781 6.597656-3.300781c79.203125-39.597657 128.402344-119.300781 128.402344-207.796875v-60.902344zm0 0" fill="#537983"/><path d="m391 240v60.902344c0 88.496094-49.199219 168.199218-128.402344 207.796875l-6.597656 3.300781v-332h75v15c0 24.902344 20.097656 45 45 45zm0 0" fill="#3e5959"/><path d="m256 478.296875c-64.964844-35.554687-105-102.960937-105-177.390625v-32.414062c29.339844-5.976563 52.515625-29.152344 58.492188-58.492188h93.015624c5.976563 29.339844 29.152344 52.515625 58.492188 58.492188v32.414062c0 74.429688-40.035156 141.835938-105 177.390625zm0 0" fill="#25d9f8"/><path d="m361 300.90625v-32.414062c-29.339844-5.976563-52.515625-29.152344-58.492188-58.492188h-46.507812v268.296875c64.964844-35.554687 105-102.960937 105-177.390625zm0 0" fill="#009ae4"/></svg>