<svg height="512pt" viewBox="0 0 512 512.00018" width="512pt" xmlns="http://www.w3.org/2000/svg"><path d="m223.417969 352.1875-114.808594 114.808594-48.90625 11.402344-12.898437-12.902344-10.804688-10.800782 9.003906-51.304687 114.808594-114.804687zm0 0" fill="#25d9f8"/><path d="m191.613281 320.386719 31.804688 31.800781-114.808594 114.808594-48.90625 11.402344-12.898437-12.902344zm0 0" fill="#009ae4"/><path d="m454.734375 57.265625c-76.207031-76.503906-199.214844-76.203125-275.421875 0-76.507812 76.207031-76.203125 199.214844 0 275.421875 76.207031 76.503906 199.214844 76.207031 275.421875 0 76.503906-76.207031 76.203125-199.214844 0-275.421875zm0 0" fill="#537983"/><path d="m454.734375 332.6875c-76.207031 76.207031-199.214844 76.503906-275.421875 0l275.421875-275.421875c76.203125 76.207031 76.503906 199.214844 0 275.421875zm0 0" fill="#3e5959"/><path d="m433.730469 311.6875c-64.503907 64.5-168.910157 64.5-233.417969 0-64.503906-64.507812-64.503906-168.914062 0-233.417969 64.507812-64.507812 168.914062-64.507812 233.417969 0 64.503906 64.503907 64.503906 168.910157 0 233.417969zm0 0" fill="#deecf1"/><path d="m433.730469 311.6875c-64.503907 64.5-168.910157 64.5-233.417969 0l233.417969-233.417969c64.503906 64.503907 64.503906 168.910157 0 233.417969zm0 0" fill="#c5d3dd"/><path d="m412.429688 99.570312c-24.601563-24.601562-58.203126-39.601562-95.40625-39.601562-74.40625 0-135.011719 60.601562-135.011719 135.007812 0 37.203126 15.003906 70.804688 39.605469 95.40625 24.601562 24.601563 58.203124 39.605469 95.40625 39.605469 74.402343 0 135.007812-60.605469 135.007812-135.011719 0-37.203124-15-70.804687-39.601562-95.40625zm0 0" fill="#25d9f8"/><path d="m452.03125 194.976562c0 74.40625-60.605469 135.011719-135.007812 135.011719-37.203126 0-70.804688-15.003906-95.40625-39.605469l190.8125-190.8125c24.601562 24.601563 39.601562 58.203126 39.601562 95.40625zm0 0" fill="#00c0f1"/><path d="m422.03125 194.976562c0 57.90625-47.105469 105.007813-105.007812 105.007813-28.804688 0-55.207032-11.699219-74.105469-30.902344-19.199219-18.902343-30.902344-45.304687-30.902344-74.105469 0-57.902343 47.101563-105.007812 105.007813-105.007812 28.800781 0 55.203124 11.703125 74.105468 30.902344 19.199219 18.902344 30.902344 45.304687 30.902344 74.105468zm0 0" fill="#00c0f1"/><path d="m422.03125 194.976562c0 57.90625-47.105469 105.007813-105.007812 105.007813-28.804688 0-55.207032-11.699219-74.105469-30.902344l148.210937-148.210937c19.199219 18.902344 30.902344 45.304687 30.902344 74.105468zm0 0" fill="#009ae4"/><path d="m197.015625 179.976562h240.015625v30h-240.015625zm0 0" fill="#25d9f8"/><path d="m372.226562 139.773438c-8.398437-44.703126-27-79.804688-55.203124-79.804688-39.304688 0-60.003907 67.804688-60.003907 135.007812 0 18.902344 1.5 37.804688 4.796875 55.203126 8.402344 44.703124 27.003906 79.808593 55.207032 79.808593 39.300781 0 60.003906-67.804687 60.003906-135.011719 0-18.902343-1.5-37.800781-4.800782-55.203124zm-55.203124 160.210937c-7.5 0-24.003907-26.703125-28.503907-76.503906-.898437-8.703125-1.5-18.304688-1.5-28.503907 0-68.105468 21.304688-105.007812 30.003907-105.007812 7.5 0 24 26.703125 28.5 76.507812.902343 8.699219 1.5 18.300782 1.5 28.5 0 68.105469-21.300782 105.007813-30 105.007813zm0 0" fill="#25d9f8"/><path d="m377.027344 194.976562c0 67.207032-20.703125 135.011719-60.003906 135.011719-28.203126 0-46.804688-35.105469-55.207032-79.808593l26.703125-26.699219c4.5 49.800781 21 76.503906 28.503907 76.503906 8.699218 0 30-36.902344 30-105.007813 0-10.199218-.601563-19.800781-1.5-28.5l26.703124-26.703124c3.300782 17.402343 4.800782 36.300781 4.800782 55.203124zm0 0" fill="#00c0f1"/><path d="m437.03125 179.976562v30h-135.007812l30-30zm0 0" fill="#00c0f1"/><path d="m108.609375 466.996094s-42.003906 42.003906-45.003906 45.003906l-63.605469-63.605469s42.003906-42 45.003906-45.003906c0 .300781 15.898438 16.203125 31.800782 32.105469 14.402343 14.097656 28.5 28.5 31.804687 31.5zm0 0" fill="#537983"/><path d="m76.804688 435.496094c14.402343 14.097656 28.503906 28.5 31.804687 31.5 0 0-42.003906 42.003906-45.003906 45.003906l-31.804688-31.800781zm0 0" fill="#3e5959"/></svg>